<?xml version="1.0" encoding="UTF-8" standalone="no"?>
<svg
   width="66.408607"
   height="60.000034"
   viewBox="0 0 66.408607 60.000034"
   version="1.1"
   id="svg7"
   xmlns="http://www.w3.org/2000/svg"
   xmlns:svg="http://www.w3.org/2000/svg">
  <defs
     id="defs7" />
  <path
     d="m 7.6290741,27.7549 c -2.40695,-2.8693 -4.12363,-6.633 -4.65184,-10.7749 -10.23403,21.802 7.3468699,45.6689 30.9181699,42.7816 -1.6386,-2.155 -2.9171,-4.6041 -3.7335,-7.2574 C 16.698604,52.5703 6.3265541,40.991 7.6290741,27.7549 Z"
     id="path1"
     />
  <path
     d="m 66.408604,49.9922 c -4.4773,13.2207 -22.3804,13.2627 -27.2424,0.6001 C 62.364004,39.502 53.349304,6.0689501 28.174404,7.5812701 35.434204,19.1037 20.187404,30.11 11.455204,20.2979 9.1113441,17.6154 8.3060341,13.3125 9.7003041,9.8137401 c 1.9771999,-5.7012 10.2165999,-8.38976 14.9342999,-9.31995801 6.4425,-1.200251 13.2696,-0.19204 19.0991,2.80258801 18.3899,9.5000299 21.7013,33.6190299 7.7105,47.7820299 4.5855,4.0268 11.3164,3.2647 14.9644,-1.0862 z"
     id="path2"
     />
</svg>
